# xmcd
#
# Track frame offsets:
#	150
#	12500
#	22419
#	33295
#	44602
#	56985
#	66812
#	79322
#	100727
#	111095
#	137977
#	147622
#	158350
#	167540
#	179335
#	188457
#	199609
#
# Disc length: 2859 seconds
#
# Revision: 1
# Processed by: cddbd v1.5.2PL0 Copyright (c) Steve Scherf et al.
# Submitted via: audiograbber 1.83.01
#
DISCID=ef0b2911
DTITLE=Chants R&B - Live 66 The Stage Door Tapes
DYEAR=1966
DGENRE=
TTITLE0=Train Time
TTITLE1=When I Found Out
TTITLE2=Gloria
TTITLE3=I Feel Good
TTITLE4=That's The Way It's Got To Be
TTITLE5=I'll Go Crazy
TTITLE6=Baby I Need Your Loving
TTITLE7=Hoochie Coochie Man
TTITLE8=Little Girl
TTITLE9=Smokestack Lightning
TTITLE10=Dimples
TTITLE11=I'll Teach You Everything
TTITLE12=Midnight Hour
TTITLE13=Hold On I'm Coming
TTITLE14=Don't Bring Me Down
TTITLE15=Land Of 1000 Dances
TTITLE16=Slow Down
EXTD=
EXTT0=
EXTT1=
EXTT2=
EXTT3=
EXTT4=
EXTT5=
EXTT6=
EXTT7=
EXTT8=
EXTT9=
EXTT10=
EXTT11=
EXTT12=
EXTT13=
EXTT14=
EXTT15=
EXTT16=
PLAYORDER=
